HIERARCHY
ROOT Hips
{
	OFFSET	0.00	0.00	0.00
	CHANNELS 6 Xposition Yposition Zposition Zrotation Xrotation Yrotation
	JOINT LeftUpperLeg
	{
		OFFSET	 0.100000	-0.066564	-0.000554
		CHANNELS 3 Zrotation Xrotation Yrotation
		JOINT LeftLowerLeg
		{
			OFFSET	 0.002447	-0.463436	-0.005172
			CHANNELS 3 Zrotation Xrotation Yrotation
			JOINT LeftFoot
			{
				OFFSET	-0.002447	-0.420480	-0.020576
				CHANNELS 3 Zrotation Xrotation Yrotation
				JOINT LeftToes
				{
					OFFSET	 0.003734	-0.104922	 0.126407
					CHANNELS 3 Zrotation Xrotation Yrotation
					End Site
					{
						OFFSET	 0.000000	 0.000000	 0.059955
					}
				}
			}
		}
	}
	JOINT RightUpperLeg
	{
		OFFSET	-0.100000	-0.066564	-0.000554
		CHANNELS 3 Zrotation Xrotation Yrotation
		JOINT RightLowerLeg
		{
			OFFSET	-0.002447	-0.463436	-0.005146
			CHANNELS 3 Zrotation Xrotation Yrotation
			JOINT RightFoot
			{
				OFFSET	 0.002447	-0.420479	-0.020602
				CHANNELS 3 Zrotation Xrotation Yrotation
				JOINT RightToes
				{
					OFFSET	-0.003734	-0.104922	 0.126407
					CHANNELS 3 Zrotation Xrotation Yrotation
					End Site
					{
						OFFSET	-0.000000	 0.000000	 0.059955
					}
				}
			}
		}
	}
	JOINT Spine
	{
		OFFSET	 0.000000	 0.099235	-0.012273
		CHANNELS 3 Zrotation Xrotation Yrotation
		JOINT Chest
		{
			OFFSET	-0.000001	 0.116455	-0.014223
			CHANNELS 3 Zrotation Xrotation Yrotation
			JOINT UpperChest
			{
				OFFSET	 0.000001	 0.133602	-0.016265
				CHANNELS 3 Zrotation Xrotation Yrotation
				JOINT LeftShoulder
				{
					OFFSET	 0.061058	 0.091105	 0.007056
					CHANNELS 3 Zrotation Xrotation Yrotation
					JOINT LeftUpperArm
					{
						OFFSET	 0.133942	-0.002659	-0.026009
						CHANNELS 3 Zrotation Xrotation Yrotation
						JOINT LeftLowerArm
						{
							OFFSET	 0.274047	 0.000000	 0.000000
							CHANNELS 3 Zrotation Xrotation Yrotation
							JOINT LeftHand
							{
								OFFSET	 0.276145	 0.000000	 0.000000
								CHANNELS 3 Zrotation Xrotation Yrotation
								End Site
								{
									OFFSET	 0.165687	 0.000000	 0.000000
								}
							}
						}
					}
				}
				JOINT Neck
				{
					OFFSET	 0.000000	 0.150325	 0.007929
					CHANNELS 3 Zrotation Xrotation Yrotation
					JOINT Head
					{
						OFFSET	 0.000000	 0.103218	 0.031424
						CHANNELS 3 Zrotation Xrotation Yrotation
						End Site
						{
							OFFSET	 0.000000	 0.061931	 0.018855
						}
					}
				}
				JOINT RightShoulder
				{
					OFFSET	-0.061057	 0.091105	 0.007056
					CHANNELS 3 Zrotation Xrotation Yrotation
					JOINT RightUpperArm
					{
						OFFSET	-0.133943	-0.002660	-0.026009
						CHANNELS 3 Zrotation Xrotation Yrotation
						JOINT RightLowerArm
						{
							OFFSET	-0.274047	 0.000000	 0.000000
							CHANNELS 3 Zrotation Xrotation Yrotation
							JOINT RightHand
							{
								OFFSET	-0.276145	 0.000000	 0.000000
								CHANNELS 3 Zrotation Xrotation Yrotation
								End Site
								{
									OFFSET	-0.165687	 0.000000	 0.000000
								}
							}
						}
					}
				}
			}
		}
	}
}
MOTION
Frames:    15
Frame Time: 0.03333334
 0.285850	 0.978110	-0.321300	-2.767156	 9.963514	 5.515134	 11.940550	-18.056320	 29.645090	 1.112075	 44.982560	-0.460779	-5.700629	-32.303080	 1.941731	 0.000276	-0.140034	 0.078812	-21.958960	-35.817190	-19.331450	 0.067559	 28.582810	-0.014200	 13.649270	 5.611710	 3.208306	-0.000503	-2.319303	 0.000670	 2.352083	 6.317561	 0.967796	-0.000000	 0.000000	 0.000000	 4.654355	 12.710890	 1.691685	-1.186524	-8.422790	-7.282186	-74.542690	-10.629270	-11.194940	-34.472060	 8.850597	-74.209710	 13.675520	 6.625560	-23.073870	 12.455650	-3.124451	-22.320870	 11.861970	-3.094661	-21.947340	-16.431350	-18.502110	-4.853451	 50.834390	-12.791990	 54.363350	-3.100477	-33.229710	 74.723680	-57.757510	 4.543636	 43.458460
 0.285850	 0.978110	-0.321300	-2.767156	 9.963514	 5.515134	 11.940550	-18.056320	 29.645090	 1.112075	 44.982560	-0.460779	-5.700629	-32.303080	 1.941731	 0.000276	-0.140034	 0.078812	-21.958960	-35.817190	-19.331450	 0.067559	 28.582810	-0.014200	 13.649270	 5.611710	 3.208306	-0.000503	-2.319303	 0.000670	 2.352083	 6.317561	 0.967796	-0.000000	 0.000000	 0.000000	 4.654355	 12.710890	 1.691685	-1.186524	-8.422790	-7.282186	-74.542690	-10.629270	-11.194940	-34.472060	 8.850597	-74.209710	 13.675520	 6.625560	-23.073870	 12.455650	-3.124451	-22.320870	 11.861970	-3.094661	-21.947340	-16.431350	-18.502110	-4.853451	 50.834390	-12.791990	 54.363350	-3.100477	-33.229710	 74.723680	-57.757510	 4.543636	 43.458460
 0.276850	 0.983390	-0.311070	-3.648708	 10.482940	 6.814364	 12.658360	-17.451570	 28.795280	 1.093802	 42.824130	-0.427990	-6.523264	-31.410920	 1.355300	 0.000418	 0.061252	 0.084524	-20.574050	-35.310480	-19.350850	-0.086340	 28.417730	 0.025687	 12.681920	 4.254056	 2.194862	 0.000283	-1.894405	-0.000013	 2.609030	 6.102639	 0.611590	-0.000000	 0.000000	 0.000000	 5.212327	 12.266520	 0.951405	-1.026827	-9.080745	-7.900508	-74.938070	-8.736459	-12.190250	-32.749100	 6.631131	-74.193230	 14.005560	 7.372355	-23.361740	 12.470620	-3.917063	-22.122390	 11.968910	-3.338371	-21.611800	-16.055320	-18.964830	-7.073238	 48.730060	-12.858070	 52.355110	-3.384846	-32.167850	 80.380710	-53.051990	 9.514956	 41.834970
 0.273190	 0.985670	-0.306380	-3.613836	 10.605450	 6.706111	 12.616260	-16.789090	 28.514820	 0.843191	 41.686220	-0.321208	-6.669792	-31.007470	 1.614066	-0.000313	 0.217390	 0.087313	-20.001540	-35.181680	-18.348520	 0.065352	 28.295730	-0.012791	 12.313940	 3.690733	 1.467664	 0.000234	-1.809289	-0.000836	 2.555269	 6.049940	 0.487846	-0.000000	 0.000000	 0.000000	 5.117777	 12.154460	 0.709266	-1.471510	-8.731781	-7.450338	-74.840560	-8.166327	-12.836650	-32.470920	 5.718594	-73.775560	 13.533880	 7.415030	-23.257830	 11.984550	-3.514789	-21.540510	 12.092170	-3.350515	-21.305540	-16.163410	-18.562810	-6.775046	 47.988680	-12.751830	 50.610390	-1.945708	-31.440480	 82.740160	-52.553230	 10.257580	 39.231750
 0.267370	 0.989080	-0.299530	-3.429987	 10.999280	 5.935756	 12.478460	-15.758790	 28.866480	 0.779554	 39.768940	-0.282010	-6.986465	-30.328380	 1.844426	 0.000875	 0.358590	 0.211717	-18.976610	-35.427350	-16.754030	 0.087374	 28.118400	-0.016734	 11.672800	 3.064039	 0.810038	 0.000110	-1.639877	-0.000169	 2.412892	 5.943698	 0.414296	-0.000000	 0.000000	 0.000000	 4.836436	 11.935480	 0.580000	-1.389511	-8.941141	-7.233189	-74.663330	-7.702848	-13.976960	-32.138680	 4.536221	-72.596390	 13.056760	 7.058743	-23.633850	 11.541720	-3.716224	-20.992450	 11.829540	-3.466283	-20.851390	-15.622410	-18.541200	-6.703504	 47.914790	-12.662890	 47.800100	 0.305960	-28.965240	 85.868250	-52.913720	 11.233600	 35.879980
 0.261720	 0.992360	-0.292430	-3.133515	 11.395730	 5.013201	 12.220020	-14.578400	 29.331510	 0.652755	 37.679820	-0.222959	-7.290623	-29.615880	 2.064425	-0.000097	 0.359479	 0.237608	-18.168420	-35.615200	-15.744710	 0.087887	 27.924910	-0.016357	 10.820690	 2.430910	 0.937997	-0.000044	-1.185541	 0.000454	 2.302123	 5.866719	 0.241524	-0.000000	 0.000000	 0.000000	 4.629976	 11.774460	 0.243585	-1.096347	-9.124726	-7.130122	-75.087580	-8.428834	-15.519280	-31.334620	 4.305717	-70.480630	 13.575080	 6.450770	-24.154110	 11.124860	-3.780444	-20.562360	 11.348630	-3.549916	-20.221180	-14.535250	-18.285500	-6.290890	 48.527820	-13.620570	 45.405650	 2.874794	-24.684740	 87.881310	-54.804150	 12.383200	 34.225300
 0.261720	 0.992360	-0.292430	-3.133515	 11.395730	 5.013201	 12.220020	-14.578400	 29.331510	 0.652755	 37.679820	-0.222959	-7.290623	-29.615880	 2.064425	-0.000097	 0.359479	 0.237608	-18.168420	-35.615200	-15.744710	 0.087887	 27.924910	-0.016357	 10.820690	 2.430910	 0.937997	-0.000044	-1.185541	 0.000454	 2.302123	 5.866719	 0.241524	-0.000000	 0.000000	 0.000000	 4.629976	 11.774460	 0.243585	-1.096347	-9.124726	-7.130122	-75.087580	-8.428834	-15.519280	-31.334620	 4.305717	-70.480630	 13.575080	 6.450770	-24.154110	 11.124860	-3.780444	-20.562360	 11.348630	-3.549916	-20.221180	-14.535250	-18.285500	-6.290890	 48.527820	-13.620570	 45.405650	 2.874794	-24.684740	 87.881310	-54.804150	 12.383200	 34.225300
 0.245080	 0.999310	-0.272680	-2.346655	 12.278960	 2.277975	 11.593160	-11.109790	 31.074410	 0.455410	 32.028110	-0.130333	-8.315665	-27.682520	 2.289623	-0.000219	 0.360509	 0.306970	-15.884540	-36.740360	-14.292800	 0.047104	 29.191360	-0.010489	 9.053705	 0.614711	 2.441212	 0.000662	-1.284560	 0.000758	 2.038915	 5.770133	-0.283252	-0.000000	 0.000000	 0.000000	 4.151142	 11.558320	-0.781421	 0.243018	-9.763679	-7.023862	-74.840800	-10.195250	-18.157300	-30.285180	 1.968379	-66.822230	 14.809900	 2.677511	-25.064870	 10.019960	-3.699943	-18.558930	 10.248940	-3.606986	-18.283790	-10.674030	-17.129230	-3.644905	 52.083820	-17.653080	 39.306340	 10.849900	-10.451570	 89.110610	-62.595250	 12.867920	 32.223240
 0.237290	 1.000690	-0.263710	-2.800174	 12.170790	 1.862917	 12.168090	-9.640461	 31.306920	 0.432201	 30.367550	-0.116628	-8.777455	-27.119550	 2.359446	 0.000716	 0.362408	 0.346163	-14.233110	-36.798950	-13.878710	-0.059654	 30.479470	 0.016209	 9.235418	-0.822699	 2.519663	 0.000944	-0.901607	 0.000195	 2.201333	 5.864363	-0.533985	-0.000000	 0.000000	 0.000000	 4.508551	 11.737270	-1.313251	 1.290236	-9.664770	-7.634471	-74.181800	-11.028940	-18.962360	-30.488760	 0.366947	-65.617520	 14.030570	 0.860793	-24.783840	 10.397070	-3.609550	-18.090680	 10.081270	-3.710764	-17.604610	-9.305229	-16.089780	-3.151520	 53.893990	-17.526700	 35.260000	 13.087720	-6.693605	 90.060990	-65.517150	 11.058550	 31.183280
 0.229500	 1.001150	-0.253890	-3.105556	 12.249160	 1.569267	 12.582630	-8.353432	 31.210150	 0.286531	 28.784870	-0.083217	-9.197015	-26.695770	 2.660077	 0.000000	 0.363995	 0.380616	-13.216520	-36.997840	-12.822930	 0.107719	 32.048130	-0.030638	 11.198920	-2.956358	 1.382435	-0.000471	 0.365994	 0.192227	 2.334126	 5.905442	-0.858519	-0.000000	 0.000000	 0.000000	 4.812988	 11.805690	-1.984478	 1.653085	-9.952579	-8.110753	-73.287350	-12.125690	-19.280220	-30.115720	-1.436725	-65.365800	 12.151780	-0.208604	-23.916700	 10.280650	-3.885134	-17.531840	 10.024300	-3.852934	-16.917250	-8.158698	-15.220830	-2.787943	 54.677060	-16.763450	 32.227840	 15.322210	-5.082703	 88.469480	-67.705490	 7.522665	 30.867160
 0.221690	 1.001230	-0.243820	-2.941068	 12.706540	 0.719683	 12.570930	-7.213045	 31.838720	 0.215670	 27.100990	-0.072954	-9.652745	-26.164820	 2.796783	-0.000665	 0.366834	 0.421779	-12.119740	-37.525340	-11.192590	 0.302666	 33.193410	-0.089839	 9.778404	-7.300802	-3.555424	 0.000943	 0.733065	 0.000335	 2.387549	 5.846687	-1.118238	-0.000000	 0.000000	 0.000000	 4.943116	 11.674420	-2.509083	 1.821467	-10.295530	-7.852028	-72.530960	-13.802030	-19.455040	-30.232580	-3.203537	-65.092510	 8.896666	-1.326458	-22.416950	 9.990140	-4.243157	-16.614410	 9.891623	-4.031683	-16.143780	-7.266139	-14.539690	-2.257023	 55.584930	-15.652230	 29.590450	 17.185510	-2.942306	 87.724400	-68.692290	 4.214403	 24.940500
 0.213210	 1.000660	-0.232950	-2.937586	 13.228160	-0.416313	 12.786500	-6.060001	 33.092390	 0.344763	 25.569070	-0.106450	-10.334080	-25.628710	 2.612003	 0.000193	 0.367907	 0.470283	-10.466560	-38.112590	-10.464230	 0.395289	 33.567240	-0.118068	 5.828906	-10.081210	-8.628191	 0.000518	 0.362295	-0.000184	 2.528779	 5.775644	-1.225221	-0.000000	 0.000000	 0.000000	 5.239393	 11.523410	-2.736113	 2.543475	-10.524740	-7.164261	-72.031130	-16.261650	-19.587090	-31.055490	-4.377509	-64.014150	 5.911194	-3.717812	-20.521570	 10.064350	-4.321944	-15.604630	 9.777588	-4.158001	-15.463900	-5.966105	-13.946100	-1.662148	 56.002320	-14.344290	 26.836740	 19.206960	-1.060184	 86.645590	-70.058550	 0.848917	 24.732010
 0.201400	 0.999200	-0.218180	-3.306062	 14.226190	-1.618414	 13.534180	-4.810134	 34.010540	 0.023336	 23.606940	-0.033001	-11.288460	-24.891860	 2.933752	-0.000356	 0.369274	 0.482612	-9.006680	-39.496130	-12.326360	 0.051327	 34.938290	-0.017155	 3.813687	-6.466319	-6.107008	 0.000378	 0.343636	-0.000485	 2.933860	 5.621743	-1.351920	-0.000000	 0.000000	 0.000000	 6.065387	 11.196840	-3.025185	 3.741396	-11.239090	-6.496748	-70.964650	-19.776560	-19.569380	-31.795630	-5.866078	-61.973760	 4.367407	-6.820672	-19.326880	 10.504430	-4.626318	-14.550660	 9.686268	-4.323768	-14.475750	-4.339097	-13.207590	-1.393991	 56.630580	-12.959100	 23.256710	 21.333930	 0.926015	 84.138370	-72.462880	-2.902180	 23.631730
 0.201400	 0.999200	-0.218180	-3.306062	 14.226190	-1.618414	 13.534180	-4.810134	 34.010540	 0.023336	 23.606940	-0.033001	-11.288460	-24.891860	 2.933752	-0.000356	 0.369274	 0.482612	-9.006680	-39.496130	-12.326360	 0.051327	 34.938290	-0.017155	 3.813687	-6.466319	-6.107008	 0.000378	 0.343636	-0.000485	 2.933860	 5.621743	-1.351920	-0.000000	 0.000000	 0.000000	 6.065387	 11.196840	-3.025185	 3.741396	-11.239090	-6.496748	-70.964650	-19.776560	-19.569380	-31.795630	-5.866078	-61.973760	 4.367407	-6.820672	-19.326880	 10.504430	-4.626318	-14.550660	 9.686268	-4.323768	-14.475750	-4.339097	-13.207590	-1.393991	 56.630580	-12.959100	 23.256710	 21.333930	 0.926015	 84.138370	-72.462880	-2.902180	 23.631730
 0.178660	 0.996570	-0.190440	-1.608073	 16.771210	-5.142277	 14.797630	-4.889968	 39.809610	 0.145814	 25.138450	-0.069080	-14.887530	-21.682190	-1.108204	-0.000530	 0.341625	 0.153365	-7.729693	-42.853910	-12.008070	-0.019692	 38.678720	 0.006531	 2.051996	-10.135720	-4.110429	-0.000356	 0.343013	 0.000620	 2.993454	 5.240484	-1.386985	-0.000000	 0.000000	 0.000000	 6.171789	 10.427770	-3.078364	 5.216718	-12.103500	-5.360488	-66.888690	-27.392850	-20.196470	-31.491430	-10.279520	-56.633870	 0.383022	-10.574280	-19.210380	 9.994038	-4.863847	-12.361140	 9.537588	-4.886190	-12.366210	-3.073418	-10.607110	-1.754389	 59.592060	-10.942570	 17.374870	 24.340350	 4.785134	 81.314770	-73.492360	-11.917080	 21.292700
